<?xml version="1.0" encoding="UTF-8"?>
<svg version="1.1" viewBox="0 0 2048 1357" width="908" height="602" xmlns="http://www.w3.org/2000/svg">
<path transform="translate(0)" d="m0 0h2048v1357h-2048z" fill="#000C7C"/>
<path transform="translate(422,654)" d="m0 0 17 2 16 8 11 9 4 6 4 5 5 12 3 13v10l-3 14-12 25-8 19-5 19-3 12-3 5-4 2h-43l-5-2-3-3-8-32-9-21-8-16-5-13-1-6v-14l3-14 6-12 9-11 10-8 8-4 9-3z" fill="#87D4FB"/>
<path transform="translate(2043)" d="m0 0h5v1357h-5z" fill="#E2D8D0"/>
<path transform="translate(1344,584)" d="m0 0h8l5 8 20 39 14 27 9 22-3-19v-75l1-1 7-1h8v121h-15l-14-26-20-39-7-14-6-15 2 16v78h-15l-1-2-1-104-1-13 1-1z" fill="#86D3FA"/>
<path transform="translate(1272,584)" d="m0 0h7l4 8 21 59 16 44 3 10h-18l-11-33v-2l-41 1-9 25-4 9-3 1-13-1 2-9 22-61 12-33 3-15 1-2z" fill="#87D4FB"/>
<path transform="translate(1580,584)" d="m0 0h8l9 24 18 50 16 44v3h-17l-4-9-8-25-41-1-3 11-9 24h-17l3-10 16-45 16-44 4-16 2-5z" fill="#87D4FB"/>
<path transform="translate(934,584)" d="m0 0h9l6 10 12 21 8 16 3-10 16-31 2-4 3-1 15 1-1 4-11 21-13 23-4 8 1 5 13 24 10 18 7 12 1 4h-19l-5-8-15-28-7-14-5 12-16 28-6 10-2 1-16-1 2-5 13-23 16-27 4-7-1-4-13-23-14-24-2-4v-3z" fill="#87D4FB"/>
<path transform="translate(836,585)" d="m0 0h36l26 1v13l-56 1 1 34h50v12l-1 1h-50v44h52l7 1-1 13h-75v-104l-1-15z" fill="#87D4FB"/>
<path transform="translate(1444,584)" d="m0 0h8l4 10 18 61 5 21 1 5 3-16 17-58 6-20 4-2 13 1-4 17-20 68-6 22-2 13-1 1h-10l-8-1-3-4-16-55-17-58v-4z" fill="#87D4FB"/>
<path transform="translate(1681,584)" d="m0 0h17l14 4 9 5-1 4-6 8-5-1-7-3-5-1h-12l-9 3-5 4-2 5 1 7 5 6 14 8 17 8 10 8 6 10 2 8-1 14-6 12-8 7-11 5-9 2h-17l-13-3-10-5-1-3 6-10 4-1 12 5 4 1h12l11-4 5-4 3-5 1-8-3-7-4-5-13-8-16-8-10-7-7-9-2-8 1-11 4-8 5-6 10-6z" fill="#87D4FB"/>
<path transform="translate(1172,584)" d="m0 0h16l10 3 10 6 2 4-6 8-6-1-7-3-5-1h-10l-10 3-9 6-6 8-4 9-2 9v15l2 10 5 12 6 8 7 6 8 4 4 1h11l12-4 4-2 6 10-1 4-12 6-9 2h-16l-13-4-10-6-9-9-8-13-5-15-1-5v-22l4-16 7-13 11-11 14-7z" fill="#87D4FB"/>
<path transform="translate(1026,585)" d="m0 0h73l10 1v13l-32 1-1 105h-16l-1-1v-104l-33-1z" fill="#87D4FB"/>
<path transform="translate(717,585)" d="m0 0h78l5 1v13h-33v106h-17v-105h-32l-1-1z" fill="#87D4FB"/>
<path transform="translate(609,557)" d="m0 0h7l1 1v363l-1 1h-7z" fill="#87D4FB"/>
<path transform="translate(1189,774)" d="m0 0 13 1 8 4 5 6 3 8v9l-3 10-6 9-8 6-9 3h-14l-9-3-6-5-4-9v-13l4-11 7-8 9-5z" fill="#87D4FB"/>
<path transform="translate(972,771)" d="m0 0 8 1-2 14-8 41-1 2h-8v-2l-8 3h-10l-8-4-4-5-2-6v-7l3-9 6-7 5-3 11-2 8 2 5 3 4-19z" fill="#87D4FB"/>
<path transform="translate(1402,787)" d="m0 0 10 2 5 3 1-4h9l-5 28-3 13-3 1-8-2-6 2h-9l-8-4-4-5-2-5v-7l3-10 6-7 5-3z" fill="#87D4FB"/>
<path transform="translate(1547,787)" d="m0 0 10 2 6 4v-5h8l1 2-7 36-1 3-4 1-7-2-6 2h-9l-8-4-4-5-2-7 1-10 4-8 7-6z" fill="#87D4FB"/>
<path transform="translate(1051,787)" d="m0 0 11 2 5 4v-5h9l-2 14-5 26-1 1h-8v-2l-9 3h-8l-7-3-5-5-2-3v-14l4-8 5-5 8-4z" fill="#87D4FB"/>
<path transform="translate(770,788)" d="m0 0h15l6 3 5 6 1 3v12l-4 9-7 6-9 3h-9l-8-3-5-6-2-6v-7l3-9 6-7z" fill="#87D4FB"/>
<path transform="translate(1189,782)" d="m0 0 9 1 7 4 4 8-1 10-4 8-8 7-5 2h-11l-8-4-4-7v-10l4-9 8-7z" fill="#000C7C"/>
<path transform="translate(1e3 787)" d="m0 0 9 1 5 3 6 7 1 4v9l-33 1 1 5 5 4h10l6-3 4 1 1 6-7 4-5 1h-9l-8-3-5-5-2-4v-13l5-10 8-6z" fill="#87D4FB"/>
<path transform="translate(1356,774)" d="m0 0 14 1 6 3 4 4v3l-6 4-8-5-9-1-9 3-7 6-4 10v9l3 6 8 4h9l8-3 3-2 4 1 3 5-6 5-9 3h-14l-9-3-5-4-5-9v-15l4-10 7-8 12-6z" fill="#87D4FB"/>
<path transform="translate(419,583)" d="m0 0 8 1 3 3 1 4v46h-17l-1-1v-45l3-6z" fill="#87D4FB"/>
<path transform="translate(479,600)" d="m0 0h9l4 6-1 6-6 11-6 10-4 7-6 10-1 3-6-2-9-6v-3l6-10 2-5 2-1 5-10 8-13z" fill="#87D4FB"/>
<path transform="translate(357,600)" d="m0 0h7l5 4 6 11 14 24 3 6-14 8h-2l-10-18-12-21-2-4 1-6z" fill="#87D4FB"/>
<path transform="translate(525,645)" d="m0 0h7l4 3 1 8-5 5-15 9-16 9-7 4h-2l-6-11 1-5 8-5 19-11z" fill="#87D4FB"/>
<path transform="translate(313,645)" d="m0 0h6l23 13 15 9 1 5-6 11h-3l-17-10-14-8-10-7-1-2v-6l3-4z" fill="#87D4FB"/>
<path transform="translate(810,788)" d="m0 0h8l-1 9-2 10v12l3 2h8l6-4 3-6 5-22 1-1h8l-2 14-5 24-2 4-7-1h-4l-5 1h-8l-7-3-3-3-1-3v-12l4-20z" fill="#87D4FB"/>
<path transform="translate(1440,788)" d="m0 0h7l2 2 4-2h14l5 3 3 4 1 3v8l-4 21-2 3-7-1 1-12 2-10v-7l-3-3-6-1-8 3-4 8-5 22h-8v-8l7-32z" fill="#87D4FB"/>
<path transform="translate(1229,788)" d="m0 0h9l-4 23v9l4 1h7l6-3 3-5 5-23 1-2h8l-1 11-6 29-1 1h-8v-2l-8 3h-9l-8-4-2-3-1-9 4-23z" fill="#87D4FB"/>
<path transform="translate(712,775)" d="m0 0h8l6 12 6 14 12-14 8-10 2-2h9l-2 4-9 11-13 16-4 8-4 15-4 1-5-1 2-12 1-7-13-33z" fill="#87D4FB"/>
<path transform="translate(1100,787)" d="m0 0 13 2 3 2-1 5-1 2-10-2-10 1-2 4 5 3 13 4 3 4v10l-5 5-9 3h-8l-10-2-3-2 1-6 3-2 7 3h12l3-2-1-4-16-5-4-5v-9l5-5 7-3z" fill="#87D4FB"/>
<path transform="translate(1596,787)" d="m0 0 12 2 4 2-2 6-4 1-6-2h-7l-5 3v4l12 3 6 3 3 4v7l-3 5-6 4-13 1-10-2-4-2 1-5 2-3 9 3h12l3-1-1-5-16-5-4-4-1-6 3-7 6-4z" fill="#87D4FB"/>
<path transform="translate(1272,604)" d="m0 0h2l2 15 9 25 4 12h-31l3-11 8-23z" fill="#000C7C"/>
<path transform="translate(1581,605)" d="m0 0h1l4 19 11 30v2h-31l12-36z" fill="#000C7C"/>
<path transform="translate(1484,788)" d="m0 0h8l4 15 3 13 5-5 14-22 1-1h8l-1 4-13 21-10 15-2 2-7-1-3-7-7-29z" fill="#87D4FB"/>
<path transform="translate(775,795)" d="m0 0 8 1 5 5 1 6-3 9-6 5-2 1h-9l-5-3-2-4v-8l4-6 5-5z" fill="#000C7C"/>
<path transform="translate(951,795)" d="m0 0 8 1 5 5v10l-4 7-6 4h-9l-5-3-2-4v-8l4-7 5-4z" fill="#000C7C"/>
<path transform="translate(1546,795)" d="m0 0 8 1 5 5v10l-4 7-6 4h-9l-5-3-2-4v-8l4-7 5-4z" fill="#000C7C"/>
<path transform="translate(1401,795)" d="m0 0 8 1 5 5v11l-6 8-4 2h-9l-5-3-2-4v-7l3-7 6-5z" fill="#000C7C"/>
<path transform="translate(1050,795)" d="m0 0 8 1 5 5 1 7-3 8-6 5-2 1h-9l-6-5-1-9 3-6 7-6z" fill="#000C7C"/>
<path transform="translate(917,775)" d="m0 0h9l-1 10-8 40-2 5-8-1 1-10z" fill="#87D4FB"/>
<path transform="translate(1282,788)" d="m0 0h7l2 2 5-2h8v6l-1 2-9 2-5 4-5 19-2 8h-8v-7l7-33z" fill="#87D4FB"/>
<path transform="translate(862,788)" d="m0 0h8v3l7-3h8l-1 7-7 2-6 3-4 9-4 20h-9l1-10 6-28z" fill="#87D4FB"/>
<path transform="translate(399,832)" d="m0 0h43l4 2v6l-2 1h-45l-2-2v-5z" fill="#87D4FB"/>
<path transform="translate(399,845)" d="m0 0h45l2 1v7l-2 1h-43l-4-3 1-5z" fill="#87D4FB"/>
<path transform="translate(402,819)" d="m0 0h26l17 1 1 1v5l-4 2h-43l-2-2 1-5z" fill="#87D4FB"/>
<path transform="translate(406,858)" d="m0 0h31l1 2-5 6-9 3-9-1-5-2-4-5z" fill="#87D4FB"/>
<path transform="translate(1122,818)" d="m0 0 5 2 1 1v6l-7 13-1 1h-5l-1-2 3-7v-10z" fill="#87D4FB"/>
<path transform="translate(1e3 795)" d="m0 0 10 1 4 4 1 4-1 1h-23l2-5 4-4z" fill="#000C7C"/>
</svg>
